# xmcd
#
# Track frame offsets: 
#        150
#        11240
#        20650
#        32185
#        45935
#        59015
#        70917
#        86577
#        108607
#        126882
#        139085
#        157192
#        173685
#        187985
#
# Disc length: 2737 seconds
#
# Revision: 2
# Processed by: cddbd v1.5.2PL0 Copyright (c) Steve Scherf et al.
# Submitted via: ExactAudioCopy v0.99pb4
#
DISCID=c40aaf0e
DTITLE=Duke Ellington - Blues in Orbit
DYEAR=1900
DGENRE=
TTITLE0=Blues in Orbit
TTITLE1=Track 360
TTITLE2=Villes Ville Is the Place, Man
TTITLE3=Brown Penny
TTITLE4=Three J's Blues
TTITLE5=Smada
TTITLE6=Pie Eye's Blues
TTITLE7=C Jam Blues
TTITLE8=Sweet and Pungent
TTITLE9=In a Mellotone
TTITLE10=Sentimental Lady
TTITLE11=Blues in Blueprint
TTITLE12=The Swingers Get the Blues, Too
TTITLE13=The Swinger's Jump
EXTD=
EXTT0=
EXTT1=
EXTT2=
EXTT3=
EXTT4=
EXTT5=
EXTT6=
EXTT7=
EXTT8=
EXTT9=
EXTT10=
EXTT11=
EXTT12=
EXTT13=
PLAYORDER=
